<?xml version="1.0" encoding="UTF-8"?>
<svg version="1.1" xmlns="http://www.w3.org/2000/svg" width="1000" height="1000">
<path d="M0 0 C36.47030849 25.85756599 58.73500441 70.84132936 76.4296875 110.72265625 C76.88529053 111.73344238 76.88529053 111.73344238 77.35009766 112.76464844 C109.36795837 184.05454182 131.05436643 260.60730266 151.0652771 335.97338867 C152.73983741 342.26015028 154.51820562 348.50371087 156.4296875 354.72265625 C160.03989104 354.72265625 162.46882471 353.70842454 165.8671875 352.47265625 C172.07379044 350.31074497 178.29782908 348.75341725 184.7421875 347.47265625 C185.55292725 347.30991211 186.36366699 347.14716797 187.19897461 346.97949219 C199.34117911 344.65871373 211.35623947 344.48355807 223.6796875 344.47265625 C224.57197052 344.47131683 225.46425354 344.46997742 226.38357544 344.46859741 C239.15371193 344.47275515 251.57026477 344.94486105 264.15380859 347.30810547 C266.48629589 347.73296745 268.82072199 348.08109564 271.16796875 348.4140625 C278.51406785 349.49965444 284.98035182 350.85305484 291.44921875 354.734375 C293.65731432 356.02032793 293.65731432 356.02032793 297.4296875 355.72265625 C299.13649697 357.34818908 300.80628945 359.0138162 302.4296875 360.72265625 C303.0896875 360.72265625 303.7496875 360.72265625 304.4296875 360.72265625 C304.72101563 360.01882813 305.01234375 359.315 305.3125 358.58984375 C310.92597493 345.06807709 316.55425217 331.65437736 323.4296875 318.72265625 C323.8529834 317.91473633 324.2762793 317.10681641 324.71240234 316.27441406 C348.57827056 270.83083983 383.195378 216.82809953 434.78662109 199.95166016 C443.47627473 197.34287239 452.31658794 194.94609477 461.4296875 194.72265625 C462.25855469 194.68398438 463.08742188 194.6453125 463.94140625 194.60546875 C489.27706872 193.93971412 514.28408799 203.70899808 534.4296875 218.72265625 C534.97399414 219.12709961 535.51830078 219.53154297 536.07910156 219.94824219 C550.50103743 230.74641276 563.72474128 243.02489139 575.4296875 256.72265625 C576.24308594 257.65851563 577.05648437 258.594375 577.89453125 259.55859375 C600.08369172 285.23786514 619.04493338 314.49370214 632.4296875 345.72265625 C632.8225293 346.63708496 633.21537109 347.55151367 633.62011719 348.49365234 C642.28337698 368.88660631 648.590947 389.36922669 652.8046875 411.09765625 C652.93242554 411.75614563 653.06016357 412.41463501 653.19177246 413.09307861 C659.66830111 446.86475847 659.54904869 485.25124828 647.4296875 517.72265625 C647.20555176 518.34640137 646.98141602 518.97014648 646.75048828 519.61279297 C641.80619296 533.32213404 635.17023087 545.77152909 625.4296875 556.72265625 C624.76582031 557.480625 624.10195313 558.23859375 623.41796875 559.01953125 C611.81800231 571.45572447 595.65121219 580.28385935 578.484375 581.05859375 C550.14795757 581.54939677 527.99175362 569.46697395 507.49609375 550.54296875 C505.56055551 548.68157007 505.56055551 548.68157007 503.4296875 547.72265625 C503.4296875 547.06265625 503.4296875 546.40265625 503.4296875 545.72265625 C502.7696875 545.72265625 502.1096875 545.72265625 501.4296875 545.72265625 C499.984375 544.2890625 499.984375 544.2890625 498.3046875 542.28515625 C495.5472118 539.02327529 495.5472118 539.02327529 492.68359375 535.85546875 C480.91101407 523.24741568 471.39395626 508.64380158 462.67480469 493.82324219 C461.48133079 491.80978152 460.26251369 489.8147448 459.03125 487.82421875 C454.08698456 479.80440305 449.68991012 471.62344458 445.59863281 463.13867188 C444.27104691 460.39477253 442.92423039 457.66064091 441.578125 454.92578125 C423.4296875 417.8320325 423.4296875 417.8320325 423.4296875 411.72265625 C418.80234079 414.97430529 416.26234275 418.15130892 414.95678711 423.75097656 C414.58057059 426.00878167 414.30303969 428.25986807 414.0546875 430.53515625 C413.94769531 431.29119141 413.84070313 432.04722656 413.73046875 432.82617188 C412.62371284 442.51441574 417.09274542 450.44953705 420.85961914 459.16552734 C443.85019725 512.38952274 443.85019725 512.38952274 443.4921875 535.66015625 C443.48316406 536.43230469 443.47414063 537.20445312 443.46484375 538 C443.44744141 538.85271484 443.44744141 538.85271484 443.4296875 539.72265625 C444.51507812 539.68785156 445.60046875 539.65304687 446.71875 539.6171875 C448.16404692 539.58903237 449.60936071 539.56173406 451.0546875 539.53515625 C452.12396484 539.49745117 452.12396484 539.49745117 453.21484375 539.45898438 C458.03259142 539.3926851 461.26243358 540.04592534 465.4296875 542.72265625 C470.79420572 549.9720052 470.63932194 556.77489768 469.96484375 565.53125 C469.57199865 570.94121295 469.32292411 576.33472555 469.21875 581.7578125 C469.19735207 582.74991226 469.19735207 582.74991226 469.17552185 583.76205444 C469.1181143 586.45776879 469.0627592 589.15324706 469.02832031 591.84936523 C469.00065294 593.86073563 468.95368394 595.87181117 468.90625 597.8828125 C468.88643066 599.05465088 468.86661133 600.22648926 468.84619141 601.43383789 C468.26344736 606.03532974 466.81827625 609.46030284 463.3671875 612.59765625 C461.4296875 613.72265625 461.4296875 613.72265625 459.4296875 613.72265625 C459.30851563 614.27953125 459.18734375 614.83640625 459.0625 615.41015625 C458.81113281 616.55484375 458.81113281 616.55484375 458.5546875 617.72265625 C458.29558594 618.96595703 458.29558594 618.96595703 458.03125 620.234375 C457.4296875 622.72265625 457.4296875 622.72265625 456.640625 624.6796875 C455.40918084 627.89362143 455.183902 629.93297908 456.21875 633.2578125 C457.76383122 636.54223953 459.52261675 639.63989136 461.4296875 642.72265625 C461.82994141 643.36992676 462.23019531 644.01719727 462.64257812 644.68408203 C469.75563895 656.00685913 477.7757193 666.61397955 485.9609375 677.17578125 C494.4296875 688.18403009 494.4296875 688.18403009 494.4296875 694.72265625 C491.6421053 701.94502831 486.50308751 705.41108334 479.58105469 708.56494141 C467.63472703 713.72265625 467.63472703 713.72265625 464.4296875 713.72265625 C464.6565625 714.42390625 464.8834375 715.12515625 465.1171875 715.84765625 C465.53259389 719.66939504 464.40432765 721.47860457 462.4296875 724.72265625 C460.14676899 727.45902828 458.16449612 728.35280664 454.76171875 729.328125 C453.86904297 729.58916016 452.97636719 729.85019531 452.05664062 730.11914062 C451.12787109 730.38017578 450.19910156 730.64121094 449.2421875 730.91015625 C448.30181641 731.18279297 447.36144531 731.45542969 446.39257812 731.73632812 C444.07397843 732.407192 441.75316102 733.06891169 439.4296875 733.72265625 C439.6153125 735.48609375 439.6153125 735.48609375 439.8046875 737.28515625 C439.79027489 741.78835026 438.32444537 743.93807485 435.24853516 747.11474609 C432.2392815 749.77500711 429.03411554 751.93486812 425.6171875 754.03515625 C424.87364014 754.50244141 424.13009277 754.96972656 423.36401367 755.45117188 C421.06118331 756.88950065 418.74706655 758.30791371 416.4296875 759.72265625 C415.73907227 760.14981934 415.04845703 760.57698242 414.33691406 761.01708984 C362.4936616 792.99084685 302.89160427 809.83885309 242.0546875 809.890625 C240.63289358 809.89385778 239.21109996 809.89722315 237.78930664 809.90071106 C234.8313724 809.90663505 231.87346707 809.90855813 228.91552734 809.90795898 C225.93922813 809.90787804 222.96308387 809.91478224 219.98681641 809.9284668 C197.9763779 810.02799734 175.980753 809.82131287 154.2421875 805.91015625 C153.2512207 805.73548828 152.26025391 805.56082031 151.23925781 805.38085938 C148.29834222 804.84888167 145.36356307 804.29206813 142.4296875 803.72265625 C141.60065918 803.56490723 140.77163086 803.4071582 139.91748047 803.24462891 C114.52817396 798.25568963 88.51860163 789.36769002 65.4296875 777.72265625 C64.39585937 777.20977051 63.36203125 776.69688477 62.296875 776.16845703 C14.08198466 752.16492326 14.08198466 752.16492326 9.4296875 742.22265625 C8.45880853 738.82457987 8.35103298 736.2227826 8.4296875 732.72265625 C7.18832031 732.408125 5.94695312 732.09359375 4.66796875 731.76953125 C3.02586957 731.33789375 1.38395184 730.90556558 -0.2578125 730.47265625 C-1.48274414 730.16521484 -1.48274414 730.16521484 -2.73242188 729.8515625 C-7.48847002 728.58071563 -11.03489271 727.34077592 -14.5703125 723.72265625 C-16.89551575 717.69826601 -16.89551575 717.69826601 -15.5703125 713.72265625 C-16.53517578 713.51962891 -16.53517578 713.51962891 -17.51953125 713.3125 C-26.46845599 711.18058783 -36.40766264 707.63571521 -42.8203125 700.72265625 C-44.90306564 697.15222229 -45.5703125 694.86244781 -45.5703125 690.72265625 C-43.60366088 685.07104988 -40.77979571 681.25881514 -36.8828125 676.78515625 C-31.15011521 669.96907564 -26.06586433 662.82263573 -21.1328125 655.41015625 C-20.47128174 654.42088135 -19.80975098 653.43160645 -19.12817383 652.41235352 C-10.70267433 641.16062772 -10.70267433 641.16062772 -7.5703125 628.16015625 C-7.88105772 626.67607992 -8.215692 625.19686432 -8.5703125 623.72265625 C-8.68890625 622.82804688 -8.8075 621.9334375 -8.9296875 621.01171875 C-9.29493274 618.46230699 -9.69714873 616.14603592 -10.5703125 613.72265625 C-12.93755163 612.24219328 -12.93755163 612.24219328 -15.5703125 611.72265625 C-19.03509566 607.88664632 -19.69268495 604.48403102 -19.82324219 599.4284668 C-19.85287048 598.34691818 -19.88249878 597.26536957 -19.9130249 596.15104675 C-19.95221039 594.39791924 -19.95221039 594.39791924 -19.9921875 592.609375 C-20.02008362 591.40706741 -20.04797974 590.20475983 -20.07672119 588.96601868 C-20.13314796 586.41986914 -20.18676179 583.87365597 -20.23779297 581.32739258 C-20.31977084 577.43586888 -20.42334746 573.54528585 -20.52734375 569.65429688 C-20.5794674 567.18101751 -20.63029127 564.70771034 -20.6796875 562.234375 C-20.71390808 561.07169601 -20.74812866 559.90901703 -20.78338623 558.71110535 C-20.94143966 548.5794597 -20.94143966 548.5794597 -17.5703125 543.72265625 C-12.91467963 539.50348896 -8.3953859 539.59189122 -2.3828125 539.66015625 C-1.63322266 539.66466797 -0.88363281 539.66917969 -0.11132812 539.67382812 C1.73571133 539.68559271 3.58270963 539.7035276 5.4296875 539.72265625 C5.40793457 539.04243408 5.38618164 538.36221191 5.36376953 537.66137695 C5.24539004 531.13753984 5.7957196 525.24952098 7.3046875 518.91015625 C7.5217334 517.98493164 7.7387793 517.05970703 7.96240234 516.10644531 C14.91389162 487.82810186 25.9720819 460.49524057 39.4296875 434.72265625 C40.43333546 432.72448439 41.4345448 430.72507754 42.4296875 428.72265625 C41.75808594 428.51382812 41.08648437 428.305 40.39453125 428.08984375 C36.40244433 426.24896046 33.35214918 423.6530375 29.9921875 420.84765625 C28.9398291 419.97971436 28.9398291 419.97971436 27.86621094 419.09423828 C25.71326946 417.31240997 23.56976679 415.51990489 21.4296875 413.72265625 C20.79724121 413.19220703 20.16479492 412.66175781 19.51318359 412.11523438 C17.73052633 410.6149546 15.95342021 409.10847343 14.1796875 407.59765625 C13.6751001 407.16855957 13.1705127 406.73946289 12.65063477 406.29736328 C2.17477051 397.28597367 -7.73112346 387.72497282 -17.48120117 377.94213867 C-19.39453444 376.0234012 -21.31321754 374.11012871 -23.23242188 372.19726562 C-29.22206813 366.21149554 -35.14537816 360.23347787 -40.5703125 353.72265625 C-41.10664307 353.09302979 -41.64297363 352.46340332 -42.19555664 351.81469727 C-61.83181998 328.69202474 -78.68540498 303.69744459 -92.5703125 276.72265625 C-93.04742676 275.79582031 -93.52454102 274.86898438 -94.01611328 273.9140625 C-127.18008541 208.73866515 -123.5088847 135.32116449 -101.74609375 66.83203125 C-100.16321908 62.07103412 -98.41621609 57.38723212 -96.5703125 52.72265625 C-96.17126709 51.68963379 -96.17126709 51.68963379 -95.76416016 50.63574219 C-86.3965507 26.65878212 -71.62772497 3.54081333 -47.453125 -7.1484375 C-31.58328569 -13.36304937 -13.85042651 -8.87789634 0 0 Z " fill="#FDFDFD" transform="translate(275.5703125,65.27734375)"/>
<path d="M0 0 C36.47030849 25.85756599 58.73500441 70.84132936 76.4296875 110.72265625 C76.88529053 111.73344238 76.88529053 111.73344238 77.35009766 112.76464844 C109.36795837 184.05454182 131.05436643 260.60730266 151.0652771 335.97338867 C152.73983741 342.26015028 154.51820562 348.50371087 156.4296875 354.72265625 C160.03989104 354.72265625 162.46882471 353.70842454 165.8671875 352.47265625 C172.07379044 350.31074497 178.29782908 348.75341725 184.7421875 347.47265625 C185.55292725 347.30991211 186.36366699 347.14716797 187.19897461 346.97949219 C199.34117911 344.65871373 211.35623947 344.48355807 223.6796875 344.47265625 C224.57197052 344.47131683 225.46425354 344.46997742 226.38357544 344.46859741 C239.15371193 344.47275515 251.57026477 344.94486105 264.15380859 347.30810547 C266.48629589 347.73296745 268.82072199 348.08109564 271.16796875 348.4140625 C278.51406785 349.49965444 284.98035182 350.85305484 291.44921875 354.734375 C293.65731432 356.02032793 293.65731432 356.02032793 297.4296875 355.72265625 C299.13649697 357.34818908 300.80628945 359.0138162 302.4296875 360.72265625 C303.0896875 360.72265625 303.7496875 360.72265625 304.4296875 360.72265625 C304.72101563 360.01882813 305.01234375 359.315 305.3125 358.58984375 C310.92597493 345.06807709 316.55425217 331.65437736 323.4296875 318.72265625 C323.8529834 317.91473633 324.2762793 317.10681641 324.71240234 316.27441406 C348.57827056 270.83083983 383.195378 216.82809953 434.78662109 199.95166016 C443.47627473 197.34287239 452.31658794 194.94609477 461.4296875 194.72265625 C462.25855469 194.68398438 463.08742188 194.6453125 463.94140625 194.60546875 C489.27706872 193.93971412 514.28408799 203.70899808 534.4296875 218.72265625 C534.97399414 219.12709961 535.51830078 219.53154297 536.07910156 219.94824219 C550.50103743 230.74641276 563.72474128 243.02489139 575.4296875 256.72265625 C576.24308594 257.65851563 577.05648437 258.594375 577.89453125 259.55859375 C600.08369172 285.23786514 619.04493338 314.49370214 632.4296875 345.72265625 C632.8225293 346.63708496 633.21537109 347.55151367 633.62011719 348.49365234 C642.28337698 368.88660631 648.590947 389.36922669 652.8046875 411.09765625 C652.93242554 411.75614563 653.06016357 412.41463501 653.19177246 413.09307861 C659.66830111 446.86475847 659.54904869 485.25124828 647.4296875 517.72265625 C647.20555176 518.34640137 646.98141602 518.97014648 646.75048828 519.61279297 C641.80619296 533.32213404 635.17023087 545.77152909 625.4296875 556.72265625 C624.76582031 557.480625 624.10195313 558.23859375 623.41796875 559.01953125 C611.81800231 571.45572447 595.65121219 580.28385935 578.484375 581.05859375 C550.14795757 581.54939677 527.99175362 569.46697395 507.49609375 550.54296875 C505.56055551 548.68157007 505.56055551 548.68157007 503.4296875 547.72265625 C503.4296875 547.06265625 503.4296875 546.40265625 503.4296875 545.72265625 C502.7696875 545.72265625 502.1096875 545.72265625 501.4296875 545.72265625 C499.984375 544.2890625 499.984375 544.2890625 498.3046875 542.28515625 C495.5472118 539.02327529 495.5472118 539.02327529 492.68359375 535.85546875 C480.91101407 523.24741568 471.39395626 508.64380158 462.67480469 493.82324219 C461.48133079 491.80978152 460.26251369 489.8147448 459.03125 487.82421875 C454.08698456 479.80440305 449.68991012 471.62344458 445.59863281 463.13867188 C444.27104691 460.39477253 442.92423039 457.66064091 441.578125 454.92578125 C423.4296875 417.8320325 423.4296875 417.8320325 423.4296875 411.72265625 C418.80234079 414.97430529 416.26234275 418.15130892 414.95678711 423.75097656 C414.58057059 426.00878167 414.30303969 428.25986807 414.0546875 430.53515625 C413.94769531 431.29119141 413.84070313 432.04722656 413.73046875 432.82617188 C412.62371284 442.51441574 417.09274542 450.44953705 420.85961914 459.16552734 C443.85019725 512.38952274 443.85019725 512.38952274 443.4921875 535.66015625 C443.48316406 536.43230469 443.47414063 537.20445312 443.46484375 538 C443.44744141 538.85271484 443.44744141 538.85271484 443.4296875 539.72265625 C444.51507812 539.68785156 445.60046875 539.65304687 446.71875 539.6171875 C448.16404692 539.58903237 449.60936071 539.56173406 451.0546875 539.53515625 C452.12396484 539.49745117 452.12396484 539.49745117 453.21484375 539.45898438 C458.03259142 539.3926851 461.26243358 540.04592534 465.4296875 542.72265625 C470.79420572 549.9720052 470.63932194 556.77489768 469.96484375 565.53125 C469.57199865 570.94121295 469.32292411 576.33472555 469.21875 581.7578125 C469.19735207 582.74991226 469.19735207 582.74991226 469.17552185 583.76205444 C469.1181143 586.45776879 469.0627592 589.15324706 469.02832031 591.84936523 C469.00065294 593.86073563 468.95368394 595.87181117 468.90625 597.8828125 C468.88643066 599.05465088 468.86661133 600.22648926 468.84619141 601.43383789 C468.26344736 606.03532974 466.81827625 609.46030284 463.3671875 612.59765625 C461.4296875 613.72265625 461.4296875 613.72265625 459.4296875 613.72265625 C459.30851563 614.27953125 459.18734375 614.83640625 459.0625 615.41015625 C458.81113281 616.55484375 458.81113281 616.55484375 458.5546875 617.72265625 C458.29558594 618.96595703 458.29558594 618.96595703 458.03125 620.234375 C457.4296875 622.72265625 457.4296875 622.72265625 456.640625 624.6796875 C455.40918084 627.89362143 455.183902 629.93297908 456.21875 633.2578125 C457.76383122 636.54223953 459.52261675 639.63989136 461.4296875 642.72265625 C461.82994141 643.36992676 462.23019531 644.01719727 462.64257812 644.68408203 C469.75563895 656.00685913 477.7757193 666.61397955 485.9609375 677.17578125 C494.4296875 688.18403009 494.4296875 688.18403009 494.4296875 694.72265625 C491.6421053 701.94502831 486.50308751 705.41108334 479.58105469 708.56494141 C467.63472703 713.72265625 467.63472703 713.72265625 464.4296875 713.72265625 C464.6565625 714.42390625 464.8834375 715.12515625 465.1171875 715.84765625 C465.53259389 719.66939504 464.40432765 721.47860457 462.4296875 724.72265625 C460.14676899 727.45902828 458.16449612 728.35280664 454.76171875 729.328125 C453.86904297 729.58916016 452.97636719 729.85019531 452.05664062 730.11914062 C451.12787109 730.38017578 450.19910156 730.64121094 449.2421875 730.91015625 C448.30181641 731.18279297 447.36144531 731.45542969 446.39257812 731.73632812 C444.07397843 732.407192 441.75316102 733.06891169 439.4296875 733.72265625 C439.6153125 735.48609375 439.6153125 735.48609375 439.8046875 737.28515625 C439.79027489 741.78835026 438.32444537 743.93807485 435.24853516 747.11474609 C432.2392815 749.77500711 429.03411554 751.93486812 425.6171875 754.03515625 C424.87364014 754.50244141 424.13009277 754.96972656 423.36401367 755.45117188 C421.06118331 756.88950065 418.74706655 758.30791371 416.4296875 759.72265625 C415.73907227 760.14981934 415.04845703 760.57698242 414.33691406 761.01708984 C362.4936616 792.99084685 302.89160427 809.83885309 242.0546875 809.890625 C240.63289358 809.89385778 239.21109996 809.89722315 237.78930664 809.90071106 C234.8313724 809.90663505 231.87346707 809.90855813 228.91552734 809.90795898 C225.93922813 809.90787804 222.96308387 809.91478224 219.98681641 809.9284668 C197.9763779 810.02799734 175.980753 809.82131287 154.2421875 805.91015625 C153.2512207 805.73548828 152.26025391 805.56082031 151.23925781 805.38085938 C148.29834222 804.84888167 145.36356307 804.29206813 142.4296875 803.72265625 C141.60065918 803.56490723 140.77163086 803.4071582 139.91748047 803.24462891 C114.52817396 798.25568963 88.51860163 789.36769002 65.4296875 777.72265625 C64.39585937 777.20977051 63.36203125 776.69688477 62.296875 776.16845703 C14.08198466 752.16492326 14.08198466 752.16492326 9.4296875 742.22265625 C8.45880853 738.82457987 8.35103298 736.2227826 8.4296875 732.72265625 C7.18832031 732.408125 5.94695312 732.09359375 4.66796875 731.76953125 C3.02586957 731.33789375 1.38395184 730.90556558 -0.2578125 730.47265625 C-1.48274414 730.16521484 -1.48274414 730.16521484 -2.73242188 729.8515625 C-7.48847002 728.58071563 -11.03489271 727.34077592 -14.5703125 723.72265625 C-16.89551575 717.69826601 -16.89551575 717.69826601 -15.5703125 713.72265625 C-16.53517578 713.51962891 -16.53517578 713.51962891 -17.51953125 713.3125 C-26.46845599 711.18058783 -36.40766264 707.63571521 -42.8203125 700.72265625 C-44.90306564 697.15222229 -45.5703125 694.86244781 -45.5703125 690.72265625 C-43.60366088 685.07104988 -40.77979571 681.25881514 -36.8828125 676.78515625 C-31.15011521 669.96907564 -26.06586433 662.82263573 -21.1328125 655.41015625 C-20.47128174 654.42088135 -19.80975098 653.43160645 -19.12817383 652.41235352 C-10.70267433 641.16062772 -10.70267433 641.16062772 -7.5703125 628.16015625 C-7.88105772 626.67607992 -8.215692 625.19686432 -8.5703125 623.72265625 C-8.68890625 622.82804688 -8.8075 621.9334375 -8.9296875 621.01171875 C-9.29493274 618.46230699 -9.69714873 616.14603592 -10.5703125 613.72265625 C-12.93755163 612.24219328 -12.93755163 612.24219328 -15.5703125 611.72265625 C-19.03509566 607.88664632 -19.69268495 604.48403102 -19.82324219 599.4284668 C-19.85287048 598.34691818 -19.88249878 597.26536957 -19.9130249 596.15104675 C-19.95221039 594.39791924 -19.95221039 594.39791924 -19.9921875 592.609375 C-20.02008362 591.40706741 -20.04797974 590.20475983 -20.07672119 588.96601868 C-20.13314796 586.41986914 -20.18676179 583.87365597 -20.23779297 581.32739258 C-20.31977084 577.43586888 -20.42334746 573.54528585 -20.52734375 569.65429688 C-20.5794674 567.18101751 -20.63029127 564.70771034 -20.6796875 562.234375 C-20.71390808 561.07169601 -20.74812866 559.90901703 -20.78338623 558.71110535 C-20.94143966 548.5794597 -20.94143966 548.5794597 -17.5703125 543.72265625 C-12.91467963 539.50348896 -8.3953859 539.59189122 -2.3828125 539.66015625 C-1.63322266 539.66466797 -0.88363281 539.66917969 -0.11132812 539.67382812 C1.73571133 539.68559271 3.58270963 539.7035276 5.4296875 539.72265625 C5.40793457 539.04243408 5.38618164 538.36221191 5.36376953 537.66137695 C5.24539004 531.13753984 5.7957196 525.24952098 7.3046875 518.91015625 C7.5217334 517.98493164 7.7387793 517.05970703 7.96240234 516.10644531 C14.91389162 487.82810186 25.9720819 460.49524057 39.4296875 434.72265625 C40.43333546 432.72448439 41.4345448 430.72507754 42.4296875 428.72265625 C41.75808594 428.51382812 41.08648437 428.305 40.39453125 428.08984375 C36.40244433 426.24896046 33.35214918 423.6530375 29.9921875 420.84765625 C28.9398291 419.97971436 28.9398291 419.97971436 27.86621094 419.09423828 C25.71326946 417.31240997 23.56976679 415.51990489 21.4296875 413.72265625 C20.79724121 413.19220703 20.16479492 412.66175781 19.51318359 412.11523438 C17.73052633 410.6149546 15.95342021 409.10847343 14.1796875 407.59765625 C13.6751001 407.16855957 13.1705127 406.73946289 12.65063477 406.29736328 C2.17477051 397.28597367 -7.73112346 387.72497282 -17.48120117 377.94213867 C-19.39453444 376.0234012 -21.31321754 374.11012871 -23.23242188 372.19726562 C-29.22206813 366.21149554 -35.14537816 360.23347787 -40.5703125 353.72265625 C-41.10664307 353.09302979 -41.64297363 352.46340332 -42.19555664 351.81469727 C-61.83181998 328.69202474 -78.68540498 303.69744459 -92.5703125 276.72265625 C-93.04742676 275.79582031 -93.52454102 274.86898438 -94.01611328 273.9140625 C-127.18008541 208.73866515 -123.5088847 135.32116449 -101.74609375 66.83203125 C-100.16321908 62.07103412 -98.41621609 57.38723212 -96.5703125 52.72265625 C-96.17126709 51.68963379 -96.17126709 51.68963379 -95.76416016 50.63574219 C-86.3965507 26.65878212 -71.62772497 3.54081333 -47.453125 -7.1484375 C-31.58328569 -13.36304937 -13.85042651 -8.87789634 0 0 Z M-61.2578125 28.41015625 C-62.39474161 30.16013537 -63.49518873 31.93404125 -64.5703125 33.72265625 C-64.93253906 34.32271484 -65.29476562 34.92277344 -65.66796875 35.54101562 C-70.02691047 42.82749742 -74.02093317 49.99272828 -76.6796875 58.08984375 C-77.6643815 61.00073743 -78.84842875 63.77849072 -80.0703125 66.59765625 C-83.88925438 75.69261323 -86.70405761 84.7827451 -87.98046875 94.578125 C-88.48745647 97.28094034 -89.1694296 99.71127929 -90 102.32421875 C-91.77991189 108.11257201 -92.74994019 113.92729714 -93.6328125 119.91015625 C-93.80200195 121.050896 -93.97119141 122.19163574 -94.14550781 123.36694336 C-98.64569647 154.61897606 -102.52131468 193.109755 -92.5703125 223.72265625 C-92.35890625 224.39635254 -92.1475 225.07004883 -91.9296875 225.76416016 C-89.30636336 234.08432169 -86.56839865 242.25418227 -82.79296875 250.1328125 C-81.40957252 253.06313742 -80.17462335 256.0371056 -78.9453125 259.03515625 C-77.30031429 263.02570395 -75.58458466 266.90614058 -73.5703125 270.72265625 C-72.9103125 270.72265625 -72.2503125 270.72265625 -71.5703125 270.72265625 C-71.33957031 271.53347656 -71.10882813 272.34429687 -70.87109375 273.1796875 C-69.26411605 277.5566508 -67.10791247 281.39405793 -64.7578125 285.41015625 C-64.27425293 286.2388623 -63.79069336 287.06756836 -63.29248047 287.92138672 C-49.01122138 312.05147583 -31.5232656 334.11531061 -12.5703125 354.72265625 C-12.0448584 355.29854492 -11.5194043 355.87443359 -10.97802734 356.46777344 C-2.15907224 366.11590339 6.9967725 375.26109967 16.64160156 384.08300781 C18.23463598 385.54379688 19.81521492 387.01636075 21.390625 388.49609375 C28.40590399 395.01762876 35.83938075 400.89590046 43.4296875 406.72265625 C44.63159736 407.64832462 45.83342098 408.57410497 47.03515625 409.5 C49.21749447 411.18049123 51.40264637 412.85706487 53.58984375 414.53125 C54.52699219 415.25441406 55.46414063 415.97757812 56.4296875 416.72265625 C57.33589844 417.41488281 58.24210938 418.10710937 59.17578125 418.8203125 C62.47451331 421.60451096 63.37744177 423.13258688 63.76171875 427.47265625 C63.64136044 431.77032867 62.19697392 435.01856158 60.1171875 438.72265625 C59.37514643 440.12953376 58.63711094 441.53852869 57.90234375 442.94921875 C57.50289551 443.71137695 57.10344727 444.47353516 56.69189453 445.25878906 C42.07656051 473.78837338 24.90462822 509.00489988 25.4296875 541.72265625 C26.05655457 541.74327118 26.68342163 541.76388611 27.32928467 541.78512573 C114.8896954 544.67864789 114.8896954 544.67864789 149.02001953 551.27050781 C151.84857586 551.80125617 154.68329055 552.28934159 157.51953125 552.77734375 C176.80346985 556.14229792 196.34936688 559.84241813 214.5546875 567.22265625 C222.81561043 570.50174541 227.18491215 569.94401789 235.42724609 566.89941406 C236.08805176 566.65545898 236.74885742 566.41150391 237.4296875 566.16015625 C238.48663818 565.76908691 238.48663818 565.76908691 239.56494141 565.37011719 C271.7265569 553.86612897 307.35013356 549.03009437 341.21142578 546.01074219 C343.27839164 545.82571566 345.34459264 545.63181035 347.40966797 545.42675781 C372.64911278 542.92179036 398.09041193 543.06908702 423.4296875 542.72265625 C423.44583326 540.9807438 423.4572867 539.23878749 423.46679688 537.49682617 C423.4736853 536.52678146 423.48057373 535.55673676 423.4876709 534.55729675 C423.40664356 530.59610476 422.78714362 526.89349347 421.9296875 523.03515625 C421.75445557 522.23537354 421.57922363 521.43559082 421.39868164 520.61157227 C416.45949577 499.24249216 408.30877132 477.83276791 398.2109375 458.37890625 C392.04883036 446.26696314 391.21962166 429.20871605 395.3984375 416.3046875 C400.32882665 403.96003891 407.69713953 394.78288656 419.72265625 388.76171875 C423.66607515 387.24808321 427.33986062 386.40359497 431.4296875 387.72265625 C436.17304826 391.15494314 438.31438793 393.71264387 440.4375 399.296875 C440.68479355 399.92939178 440.9320871 400.56190857 441.18687439 401.21359253 C441.71557394 402.56920966 442.23685007 403.9277418 442.75125122 405.28884888 C444.12666143 408.92033516 445.56454814 412.527077 446.99609375 416.13671875 C447.42785164 417.23086845 447.42785164 417.23086845 447.86833191 418.34712219 C464.13825225 459.37445853 486.05175113 498.51156854 516.4296875 530.72265625 C517.1825 531.52960937 517.9353125 532.3365625 518.7109375 533.16796875 C532.53487446 547.54285972 551.57832069 560.22391788 572.0546875 560.97265625 C586.04421581 560.76291819 597.99989811 554.84437843 608.0234375 545.3125 C618.93454776 533.5688862 626.52228813 518.21934899 630.4296875 502.72265625 C630.67074219 501.96082031 630.91179688 501.19898438 631.16015625 500.4140625 C639.21620932 474.20121977 637.92572871 445.44441062 633.4296875 418.72265625 C633.26871582 417.75440918 633.10774414 416.78616211 632.94189453 415.78857422 C624.74684563 368.31082215 602.17130157 323.32811795 572.4296875 285.72265625 C571.62789062 284.70816406 570.82609375 283.69367188 570 282.6484375 C565.68140179 277.29128366 561.17575073 272.1306747 556.53515625 267.05078125 C554.67902037 264.99835642 552.89597758 262.90419916 551.1171875 260.78515625 C533.11677822 240.22505574 507.56373594 221.67880964 480.4296875 216.72265625 C479.48738281 216.53960937 478.54507813 216.3565625 477.57421875 216.16796875 C457.95957664 213.39024304 441.38589135 218.13993082 424.4296875 227.72265625 C423.44226563 228.27953125 422.45484375 228.83640625 421.4375 229.41015625 C403.97325029 239.93932709 388.91416959 255.53720379 376.83789062 271.82714844 C375.35877398 273.81810919 373.85509621 275.78914993 372.3515625 277.76171875 C347.72664849 310.50617873 328.3764712 349.88230516 315.4296875 388.72265625 C313.8671875 389.41015625 313.8671875 389.41015625 311.4296875 389.72265625 C309.604375 390.03203125 309.604375 390.03203125 307.7421875 390.34765625 C304.78312383 390.31513907 303.70162873 389.95833865 301.4375 387.99609375 C300.75429688 387.24585938 300.07109375 386.495625 299.3671875 385.72265625 C286.48900666 371.62326861 264.95237485 366.72676966 246.57498169 365.53799438 C240.33802753 365.28316855 234.10447582 365.25165876 227.86303711 365.27661133 C224.6313488 365.28511897 221.40143712 365.25624041 218.16992188 365.22460938 C194.07486486 365.14314164 172.01702961 369.18151529 151.515625 382.18359375 C148.12997741 383.87213191 146.15946241 384.1895413 142.4296875 383.72265625 C140.12693194 381.85555715 138.75144879 380.36617884 137.4296875 377.72265625 C136.7696875 377.72265625 136.1096875 377.72265625 135.4296875 377.72265625 C135.50727295 376.44342285 135.5848584 375.16418945 135.66479492 373.84619141 C136.31700261 357.9882299 133.10310095 344.25582371 128.7421875 329.09765625 C128.05357313 326.62979162 127.36699918 324.16135682 126.68237305 321.69238281 C124.96029004 315.51507518 123.20200468 309.34886472 121.42675781 303.18664551 C120.4909842 299.93561127 119.5624532 296.6826158 118.63671875 293.42871094 C112.14003497 270.63521153 105.07205203 248.07276386 97.41346741 225.64389038 C95.5469359 220.14540162 93.80483831 214.61140366 92.11413574 209.05645752 C90.74775308 204.60045309 89.12726656 200.31656034 87.33203125 196.01953125 C86.08709929 192.85061352 85.15131581 189.61769452 84.23828125 186.33984375 C83.39738711 183.61810909 82.42248927 180.96455063 81.40942383 178.30273438 C80.42211023 175.70270195 79.45183744 173.0965767 78.48260498 170.48976135 C71.17484166 150.87560405 63.30260775 131.68715401 54.4296875 112.72265625 C53.66591797 111.08562744 53.66591797 111.08562744 52.88671875 109.41552734 C49.4806522 102.14480109 45.99264757 94.91774869 42.4296875 87.72265625 C41.9361377 86.72476074 41.44258789 85.72686523 40.93408203 84.69873047 C34.30742429 71.40013031 27.14423287 58.76906085 18.4296875 46.72265625 C17.97239258 46.09037109 17.51509766 45.45808594 17.04394531 44.80664062 C5.80440708 29.48073321 -9.02166589 11.64743068 -28.84375 8.34375 C-42.76679169 7.58653194 -53.54426984 17.85760137 -61.2578125 28.41015625 Z " fill="#010101" transform="translate(275.5703125,65.27734375)"/>
<path d="M0 0 C3.42817184 3.13542908 5.78637696 6.62939508 8.1875 10.5625 C12.3219857 17.13997404 16.83307345 23.18170622 22 29 C23.11955078 30.26263672 23.11955078 30.26263672 24.26171875 31.55078125 C40.66996327 48.98962626 65.017007 60.53833823 89.015625 61.30078125 C91.09366421 61.32006356 93.17190093 61.3235922 95.25 61.3125 C96.34755615 61.30758545 97.4451123 61.3026709 98.57592773 61.29760742 C107.08015437 61.17532115 114.78125204 60.30310677 123 58 C124.91232422 57.48953125 124.91232422 57.48953125 126.86328125 56.96875 C145.78650648 51.65534348 163.61732376 42.65721683 177 28 C178.14670384 28.85299768 179.29228934 29.70749867 180.4375 30.5625 C181.17613281 31.11164062 181.91476562 31.66078125 182.67578125 32.2265625 C184.15630762 33.35624145 185.6152293 34.51523983 187.04296875 35.7109375 C193.46540959 41.03686405 200.49075963 44.48571823 208 48 C208.29249758 52.16516547 208.4686497 56.3276806 208.625 60.5 C208.70878906 61.67304687 208.79257812 62.84609375 208.87890625 64.0546875 C209.12001798 72.63826524 209.12001798 72.63826524 205.99316406 76.43994141 C203.42443594 78.51204876 200.81021093 80.2727684 198 82 C196.67013738 82.95656243 195.34634281 83.92166875 194.03125 84.8984375 C192.85633183 85.72703699 191.67930662 86.55265839 190.5 87.375 C186.0506809 90.4402935 186.0506809 90.4402935 182 94 C181.83322718 97.58343976 181.83322718 97.58343976 182 101 C185.00784341 102.50392171 186.61755134 102.43853619 190 102 C193.35131266 100.22452541 196.37039661 98.03549049 199.4375 95.8125 C200.25798828 95.23435547 201.07847656 94.65621094 201.92382812 94.06054688 C204.29270238 92.38739946 206.64768824 90.69632497 209 89 C210.365417 88.02408389 211.73125033 87.04874977 213.09765625 86.07421875 C214.05542969 85.38972656 215.01320313 84.70523438 216 84 C221.79261994 87.14478697 227.0596227 90.79788436 232.375 94.6875 C233.19355469 95.28111328 234.01210938 95.87472656 234.85546875 96.48632812 C240.83363412 100.83363412 240.83363412 100.83363412 242 102 C243.87321948 102.16053815 243.87321948 102.16053815 246 102.125 C246.721875 102.12757813 247.44375 102.13015625 248.1875 102.1328125 C250.02089415 102.19695276 250.02089415 102.19695276 251 101 C251.92339574 97.8028229 251.92339574 97.8028229 251 94 C247.04191498 89.59697802 242.10899157 86.46811444 236.7734375 83.99609375 C227.84506511 79.50123606 227.84506511 79.50123606 225 75 C222.99554643 66.19521149 224.01946098 56.89744879 225 48 C225.84820312 47.62230469 226.69640625 47.24460937 227.5703125 46.85546875 C238.15542535 41.8886081 247.91531838 35.57033387 256 27 C259.43169885 28.45656551 261.38533788 30.31612174 263.875 33.0625 C277.2860411 46.73693307 295.73492932 54.37287774 314 59 C314.65387695 59.18763916 315.30775391 59.37527832 315.98144531 59.56860352 C322.63316986 61.31877038 329.25101904 61.33800619 336.09960938 61.31567383 C338.10031584 61.31253868 340.10100439 61.33676332 342.1015625 61.36132812 C354.87980195 61.36761663 366.93901202 59.52731106 378.6875 54.3125 C379.48929688 53.96437256 380.29109375 53.61624512 381.1171875 53.25756836 C387.96572051 50.19240871 394.02256896 46.56285861 400 42 C400.96550781 41.26652344 401.93101562 40.53304687 402.92578125 39.77734375 C416.35848929 29.18022766 426.69717744 14.8890278 435 0 C439.06135531 3.62724369 441.75369721 7.96803314 444.6875 12.5 C450.04763552 20.66821757 455.66120362 28.54495847 461.74609375 36.1953125 C463 38 463 38 463 40 C457.76527316 42.2369657 452.67554502 44.13764154 447.125 45.4375 C443.7746398 46.32935645 442.17912016 46.84774787 439.5 49.125 C437.942795 51.79581274 437.942795 51.79581274 437.54443359 54.1484375 C436.97350484 56.72537552 436.34532056 58.72170337 435 61 C431.86887197 62.7713024 428.64895286 63.29352271 425.125 63.875 C417.0881935 65.21332773 417.0881935 65.21332773 410 69 C407.63168947 73.73662106 409.09795445 79.98863585 410 85 C390.34284537 97.50668388 370.59348601 108.22977185 349 117 C348.15743652 117.34804688 347.31487305 117.69609375 346.44677734 118.0546875 C328.26801335 125.52416226 309.4786067 130.87584719 290.125 134.3125 C289.29629395 134.45977539 288.46758789 134.60705078 287.61376953 134.75878906 C271.82470269 137.34735944 256.00205958 138.31613936 240.0234375 138.30078125 C238.2758474 138.30469098 236.52825822 138.30903008 234.78067017 138.31376648 C231.14883319 138.32114495 227.51709354 138.32100016 223.88525391 138.31567383 C220.22236838 138.31104856 216.55981534 138.31795081 212.89697266 138.33618164 C145.77481593 138.66715018 82.07651129 123.3214822 26 85 C26.165 84.175 26.33 83.35 26.5 82.5 C27.07760975 78.45673175 27.32940458 75.08461677 27 71 C24.30398075 67.58344281 22.12303135 66.44214515 17.90234375 65.61328125 C16.45311523 65.2874707 16.45311523 65.2874707 14.97460938 64.95507812 C12.94999242 64.52671865 10.92115878 64.11782606 8.88867188 63.72851562 C6.0075143 63.06067215 3.59662218 62.4219733 1 61 C-0.34005593 58.74423018 -0.89831054 56.75967179 -1.48193359 54.20898438 C-2.24622047 50.95014003 -3.54142045 49.24225783 -6 47 C-8.57269579 45.79497503 -11.19631431 45.03965135 -13.9375 44.3125 C-15.34292645 43.91444613 -16.74788688 43.51474268 -18.15234375 43.11328125 C-18.81218262 42.92846191 -19.47202148 42.74364258 -20.15185547 42.55322266 C-22.49969704 41.85042094 -24.74850814 40.96492508 -27 40 C-25.68371309 37.21604935 -24.21347094 34.77842834 -22.3828125 32.3046875 C-21.86356201 31.59683105 -21.34431152 30.88897461 -20.80932617 30.15966797 C-20.25349854 29.40572754 -19.6976709 28.65178711 -19.125 27.875 C-12.46843926 18.76463718 -6.18817679 9.43278841 0 0 Z " fill="#FDFDFD" transform="translate(282,716)"/>
<path d="M0 0 C20.66548165 11.58207648 28.47877747 33.99539719 34.74609375 55.5390625 C36.07184511 60.34624515 37.32074638 65.17190559 38.54296875 70.00634766 C40.37270838 77.23112838 42.44955192 84.3522589 44.63916016 91.47509766 C46.15553991 96.44838517 47.48504398 101.41715242 48.68359375 106.4765625 C53.58618803 126.58546607 61.72428032 145.39614494 69.75109863 164.40370178 C73.22520396 172.64580632 76.58731539 180.93190948 79.93359375 189.2265625 C81.16353004 192.27365278 82.39396941 195.32053915 83.625 198.3671875 C83.94357971 199.15572617 84.26215942 199.94426483 84.59039307 200.75669861 C87.36034268 207.60392512 90.15872667 214.43936075 92.9609375 221.2734375 C93.86631364 223.48347108 94.77166844 225.69351341 95.67700195 227.90356445 C97.00938491 231.15580308 98.34274094 234.40762234 99.67953491 237.65805054 C114.63982285 274.03742759 114.63982285 274.03742759 112.74609375 282.5390625 C110.13262315 287.82844155 106.11225443 292.06237295 100.74609375 294.5390625 C93.4693986 295.60484108 86.83451037 294.45579875 80.82421875 290.16796875 C71.342056 282.25984502 63.93757613 272.65024188 56.84277344 262.64501953 C52.96521331 257.18508103 48.94930076 251.8643011 44.80859375 246.6015625 C39.3779737 239.68945302 34.11752472 232.67135268 28.92822266 225.57666016 C25.07971063 220.32359743 21.15989704 215.13340577 17.18359375 209.9765625 C11.06080408 202.01971902 5.15687848 193.91871111 -0.671875 185.74462891 C-2.20553636 183.6064967 -3.75830329 181.48364309 -5.31640625 179.36328125 C-34.32126911 139.5808863 -60.02887849 84.07571377 -53.78515625 33.76171875 C-50.86543409 20.53607252 -43.51024484 7.98561748 -32.00390625 0.5390625 C-21.70320234 -5.4476714 -10.67120718 -5.07342918 0 0 Z " fill="#010101" transform="translate(272.25390625,180.4609375)"/>
<path d="M0 0 C2 1 2 1 2.69848633 2.89160156 C2.90755615 3.7162793 3.11662598 4.54095703 3.33203125 5.390625 C3.57074951 6.31697754 3.80946777 7.24333008 4.05541992 8.19775391 C4.30525635 9.20499512 4.55509277 10.21223633 4.8125 11.25 C5.20562378 12.80533447 5.20562378 12.80533447 5.60668945 14.39208984 C6.1484864 16.54584329 6.68611376 18.70064959 7.21972656 20.85644531 C7.93254548 23.72824019 8.66318509 26.59482445 9.3984375 29.4609375 C12.25520107 40.78907926 14.2173527 52.07717366 15.69140625 63.66259766 C15.97298103 65.79534843 16.28771906 67.91841901 16.625 70.04296875 C17.14548919 73.35747281 17.59012261 76.67027442 18 80 C18.15597656 80.99515625 18.31195312 81.9903125 18.47265625 83.015625 C18.76009198 85.97904688 18.81094591 88.13190882 18 91 C15.8490592 93.41014508 13.57354788 95.07848252 10.9140625 96.91015625 C7.76713847 99.16699855 5.2461435 101.64944963 2.5625 104.4375 C-1.75787223 108.84258541 -6.24051479 112.78638678 -11.0625 116.62890625 C-14.37857776 119.30558072 -17.5934328 122.08336081 -20.8125 124.875 C-25.62395452 129.01712715 -30.48142847 133.09416999 -35.4375 137.0625 C-35.99219971 137.51544434 -36.54689941 137.96838867 -37.1184082 138.43505859 C-43.55718879 143.52852324 -49.30033759 145.60329416 -57.4140625 145.34765625 C-62.65834389 144.64260936 -65.18872645 142.05246299 -68.3125 138 C-71.95879262 131.51770202 -72.34277759 124.09824648 -70.45214844 116.91992188 C-60.24210909 85.03988154 -44.08860818 51.2628908 -22.90234375 25.3359375 C-21.03759718 23.04616656 -19.2334543 20.71894035 -17.4375 18.375 C-12.12742594 11.54776193 -6.71093707 5.47831598 0 0 Z " fill="#020202" transform="translate(686,335)"/>
<path d="M0 0 C5.94 0 11.88 0 18 0 C17.29721672 4.21669968 16.63068896 7.42406 15.22265625 11.3359375 C14.87396484 12.31820312 14.52527344 13.30046875 14.16601562 14.3125 C13.61977539 15.8284375 13.61977539 15.8284375 13.0625 17.375 C10.72864786 23.87137554 8.53504938 30.26507129 7 37 C6.34 37 5.68 37 5 37 C4.7525 38.2375 4.505 39.475 4.25 40.75 C2.51928973 48.52600811 -0.24162622 55.97685911 -3 63.4375 C-4.87587825 68.535475 -6.47932876 73.69569435 -8.05078125 78.89453125 C-9.29238012 82.95655224 -10.6364327 86.97747645 -12 91 C-17.94 91 -23.88 91 -30 91 C-29.27734922 86.66409529 -28.47113295 82.90262931 -27.1875 78.75 C-26.71376953 77.19539062 -26.71376953 77.19539062 -26.23046875 75.609375 C-25.29027468 72.85147241 -24.28155403 70.20221014 -23.17578125 67.51171875 C-20.45833725 60.80755241 -18.25128967 53.93302054 -16 47.0625 C-13.42007208 39.21050304 -10.80995272 31.38022054 -7.95117188 23.62426758 C-6.29352529 19.05084787 -4.77543195 14.43135082 -3.25 9.8125 C-2.93417969 8.86052734 -2.61835937 7.90855469 -2.29296875 6.92773438 C-1.52724275 4.61895446 -0.76341508 2.30954507 0 0 Z " fill="#F5F5F5" transform="translate(660,639)"/>
<path d="M0 0 C5.94 0 11.88 0 18 0 C16.03744131 9.23105781 13.45347455 17.90365335 10.1875 26.75 C9.29417659 29.21220539 8.40094713 31.67444487 7.5078125 34.13671875 C7.07758789 35.31411621 6.64736328 36.49151367 6.20410156 37.70458984 C4.64021593 41.98466451 3.09025708 46.26939773 1.5625 50.5625 C1.32442627 51.23055664 1.08635254 51.89861328 0.84106445 52.58691406 C-0.77955711 57.20248191 -2.07491467 61.85466723 -3.2890625 66.58984375 C-4.23312258 69.79031117 -5.59788631 72.710512 -7.01953125 75.72265625 C-8.46051279 79.06963727 -9.4176902 82.52325839 -10.38671875 86.03125 C-11 88 -11 88 -12 89 C-14.69654854 89.07319621 -17.36691458 89.09242537 -20.0625 89.0625 C-20.82111328 89.05798828 -21.57972656 89.05347656 -22.36132812 89.04882812 C-24.24091871 89.0370068 -26.12046899 89.01907078 -28 89 C-27.44390137 81.32763278 -25.05049719 74.38296237 -22.6328125 67.12109375 C-22.19247325 65.78184284 -21.75269426 64.44240761 -21.31344604 63.10279846 C-20.39494619 60.30668766 -19.47162784 57.51223366 -18.54443359 54.71899414 C-17.36160154 51.15523432 -16.18798231 47.58852827 -15.01761055 44.02065945 C-14.11084211 41.25813945 -13.2006664 38.49675212 -12.28933334 35.73573494 C-11.85569865 34.42156881 -11.42275525 33.10717435 -10.99054337 31.7925396 C-8.88817346 25.40734616 -6.75169408 19.13464992 -4 13 C-3.23782133 10.69816943 -2.50704496 8.38563314 -1.8125 6.0625 C-1.214375 4.061875 -0.61625 2.06125 0 0 Z " fill="#F6F6F6" transform="translate(615,644)"/>
<path d="M0 0 C1.58206057 0.00667536 3.16410534 0.0186375 4.74609375 0.03515625 C5.55240234 0.03966797 6.35871094 0.04417969 7.18945312 0.04882812 C9.18753131 0.06065107 11.18557158 0.07858711 13.18359375 0.09765625 C12.55498492 3.58758637 11.66602804 6.82121725 10.4765625 10.16015625 C10.13915039 11.11575439 9.80173828 12.07135254 9.45410156 13.0559082 C8.9180127 14.56157349 8.9180127 14.56157349 8.37109375 16.09765625 C5.76106849 23.49715878 3.28098514 30.89139388 1.0390625 38.41015625 C0.22257441 40.97519647 -0.72014121 43.42585132 -1.75390625 45.91015625 C-3.49644688 50.10717045 -4.87326709 54.3777947 -6.19140625 58.72265625 C-9.22870412 68.70950143 -12.94066167 78.4082948 -16.81640625 88.09765625 C-22.42640625 88.09765625 -28.03640625 88.09765625 -33.81640625 88.09765625 C-32.0500274 81.91533027 -30.23503739 75.7532334 -28.37890625 69.59765625 C-28.07919922 68.59089844 -27.77949219 67.58414063 -27.47070312 66.546875 C-25.86275762 61.22426146 -24.06953948 56.1768623 -21.81640625 51.09765625 C-21.06303659 48.75020005 -20.4084405 46.393077 -19.7578125 44.015625 C-18.95319234 41.52163637 -18.04034896 39.16614455 -17.04296875 36.74609375 C-14.22487423 29.79548291 -11.95641407 22.66054465 -9.62890625 15.53515625 C-8.74301291 12.82437951 -7.85316499 10.11494751 -6.9609375 7.40625 C-6.57268799 6.21829834 -6.18443848 5.03034668 -5.78442383 3.80639648 C-4.46496887 0.11425202 -4.46496887 0.11425202 0 0 Z " fill="#F5F5F5" transform="translate(408.81640625,648.90234375)"/>
<path d="M0 0 C1.58206057 0.00667536 3.16410534 0.0186375 4.74609375 0.03515625 C5.55240234 0.03966797 6.35871094 0.04417969 7.18945312 0.04882812 C9.18753131 0.06065107 11.18557158 0.07858711 13.18359375 0.09765625 C12.26318136 4.77641922 11.22051311 9.20968769 9.53515625 13.671875 C6.63027031 21.53444174 3.93825944 29.46897629 1.22998047 37.40087891 C0.31976793 40.06495091 -0.59393219 42.72780933 -1.5078125 45.390625 C-5.08839778 55.84229519 -5.08839778 55.84229519 -8.45800781 66.36328125 C-8.7203421 67.21204834 -8.98267639 68.06081543 -9.25296021 68.93530273 C-9.74001192 70.52392621 -10.22092474 72.11445219 -10.69406128 73.70727539 C-12.25608394 78.81792598 -14.32061892 83.36921785 -16.81640625 88.09765625 C-22.09640625 88.09765625 -27.37640625 88.09765625 -32.81640625 88.09765625 C-32.19069798 84.34340663 -31.67076573 81.28344761 -30.52880859 77.77075195 C-30.27118744 76.97163895 -30.01356628 76.17252594 -29.74813843 75.34919739 C-29.46902618 74.49919662 -29.18991394 73.64919586 -28.90234375 72.7734375 C-28.60961578 71.87255905 -28.31688782 70.9716806 -28.01528931 70.04350281 C-27.39363803 68.13403062 -26.76983989 66.22525622 -26.14404297 64.31713867 C-25.20989438 61.46657299 -24.2840894 58.61340357 -23.359375 55.75976562 C-20.15710792 45.92619187 -16.79855889 36.17572863 -13.17718506 26.48851013 C-11.08060788 20.86868836 -9.16708978 15.21828466 -7.44140625 9.47265625 C-4.60526414 0.11784197 -4.60526414 0.11784197 0 0 Z " fill="#F6F6F6" transform="translate(366.81640625,641.90234375)"/>
<path d="M0 0 C0.82411377 0.00088623 1.64822754 0.00177246 2.49731445 0.00268555 C9.74483775 0.14174877 16.00652035 1.71008382 22.75 4.375 C24.02230469 4.83712891 24.02230469 4.83712891 25.3203125 5.30859375 C27.13997835 5.97115501 28.94713699 6.6679949 30.75 7.375 C27.37204691 15.99871553 15.6765402 22.70085947 7.62109375 26.3671875 C2.04965569 28.32287596 -2.25838308 28.46451147 -7.82421875 26.4375 C-16.23758035 22.31065402 -23.57184803 15.88741681 -30.25 9.375 C-30.25 8.715 -30.25 8.055 -30.25 7.375 C-28.44186125 6.57342242 -26.62819627 5.78430825 -24.8125 5 C-23.80316406 4.55914063 -22.79382813 4.11828125 -21.75390625 3.6640625 C-14.56228731 1.0183164 -7.6441413 -0.01500865 0 0 Z " fill="#F9F9F9" transform="translate(498.25,724.625)"/>
<path d="M0 0 C4.10980202 1.67480371 6.90436394 4.49047724 10.078125 7.5390625 C10.74424805 8.17070313 11.41037109 8.80234375 12.09667969 9.453125 C18.5462435 15.69688536 24.40161142 22.64143395 27.703125 31.1015625 C27.373125 32.0915625 27.043125 33.0815625 26.703125 34.1015625 C25.68992187 33.82441406 24.67671875 33.54726563 23.6328125 33.26171875 C22.28129106 32.89568169 20.92972624 32.52980478 19.578125 32.1640625 C18.91296875 31.98166016 18.2478125 31.79925781 17.5625 31.61132812 C10.66548367 29.75183843 4.25097485 28.88259884 -2.859375 28.8515625 C-3.64642822 28.84761475 -4.43348145 28.84366699 -5.24438477 28.83959961 C-11.42171587 28.90045074 -16.84219828 29.83297724 -22.79296875 31.54296875 C-25.296875 32.1015625 -25.296875 32.1015625 -28.296875 31.1015625 C-24.00822634 21.909016 -18.3780136 15.19252237 -11.296875 8.1015625 C-10.46027344 7.25335937 -9.62367188 6.40515625 -8.76171875 5.53125 C-3.13418296 0.13858632 -3.13418296 0.13858632 0 0 Z " fill="#F8F8F8" transform="translate(500.296875,682.8984375)"/>
<path d="M0 0 C0.66 0.33 1.32 0.66 2 1 C1.195625 1.680625 0.39125 2.36125 -0.4375 3.0625 C-3.42288711 6.48477302 -3.73781251 8.5428126 -4 13 C-4.33 13 -4.66 13 -5 13 C-5.61538462 5.73846154 -5.61538462 5.73846154 -2.5 2 C-1.675 1.34 -0.85 0.68 0 0 Z " fill="#2E2E2E" transform="translate(695,782)"/>
</svg>
