<?xml version="1.0" encoding="UTF-8"?>
<svg version="1.1" viewBox="0 0 1000 1000" width="1280" height="1280" xmlns="http://www.w3.org/2000/svg">
<path transform="translate(0)" d="m0 0h1e3v1e3h-1e3z" fill="#F7F7F7"/>
<path transform="translate(236,57)" d="m0 0h17l13 4 12 7 14 12 10 11 13 18 12 20 14 26 15 33 15 38 14 39 16 49 19 66 11 40v3l15-6 17-4 17-2h37l24 3 17 3 16 8 7 4 1-5 11-25 13-26 13-22 13-19 10-13 11-12 7-8 10-9 15-11 21-11 17-5 6-1h26l18 4 19 8 16 10 14 11 12 11 13 13 9 11 13 16 16 24 12 21 12 25 9 24 7 25 4 21 2 18v35l-3 22-5 19-6 15-8 15-12 15-14 11-13 6-12 3h-18l-16-4-14-6-15-10-15-13-7-7-18-22-12-18-9-15-14-26-13-28-8-20-4 2-4 6-2 6-1 16 6 16 10 24 10 30 4 21v9h15l7 3 4 7v20l-1 26-1 9-3 5-5 3-4 17 8 16 14 20 10 13 6 9v7l-4 6-10 6-15 6-1 9-5 4-17 5h-3l1 8-3 5-7 6-19 12-20 11-27 12-22 8-30 8-30 5-28 2h-63l-23-2-24-4-25-6-32-11-24-11-21-11-16-10-11-8-3-4v-8l1-2-8-1-13-4-5-6v-8l-9-2-14-7-5-5-2-5 1-6 8-11 14-19 12-19 3-6-1-9-2-7v-4l-4-1-4-4-1-3-1-38v-17l3-5 3-3 4-1h16v-12l5-23 10-29 12-28 7-14 3-3-1-3-12-9-11-9-14-12-15-14-19-19-7-8-12-14-13-17-14-20-14-24-11-22-9-23-4-13-3-17-2-28 1-32 3-26 6-31 7-24 7-19 8-16 9-14 9-10 9-8 12-6z" fill="#F7F7F7"/>
<path transform="translate(236,57)" d="m0 0h17l13 4 12 7 14 12 10 11 13 18 12 20 14 26 15 33 15 38 14 39 16 49 19 66 11 40v3l15-6 17-4 17-2h37l24 3 17 3 16 8 7 4 1-5 11-25 13-26 13-22 13-19 10-13 11-12 7-8 10-9 15-11 21-11 17-5 6-1h26l18 4 19 8 16 10 14 11 12 11 13 13 9 11 13 16 16 24 12 21 12 25 9 24 7 25 4 21 2 18v35l-3 22-5 19-6 15-8 15-12 15-14 11-13 6-12 3h-18l-16-4-14-6-15-10-15-13-7-7-18-22-12-18-9-15-14-26-13-28-8-20-4 2-4 6-2 6-1 16 6 16 10 24 10 30 4 21v9h15l7 3 4 7v20l-1 26-1 9-3 5-5 3-4 17 8 16 14 20 10 13 6 9v7l-4 6-10 6-15 6-1 9-5 4-17 5h-3l1 8-3 5-7 6-19 12-20 11-27 12-22 8-30 8-30 5-28 2h-63l-23-2-24-4-25-6-32-11-24-11-21-11-16-10-11-8-3-4v-8l1-2-8-1-13-4-5-6v-8l-9-2-14-7-5-5-2-5 1-6 8-11 14-19 12-19 3-6-1-9-2-7v-4l-4-1-4-4-1-3-1-38v-17l3-5 3-3 4-1h16v-12l5-23 10-29 12-28 7-14 3-3-1-3-12-9-11-9-14-12-15-14-19-19-7-8-12-14-13-17-14-20-14-24-11-22-9-23-4-13-3-17-2-28 1-32 3-26 6-31 7-24 7-19 8-16 9-14 9-10 9-8 12-6zm5 17-9 3-9 7-8 9-8 13-9 19-8 24-6 25-4 26-2 24v31l3 26 5 18 10 24 10 20 12 20 11 16 13 17 11 13 11 12 9 10 12 12 8 7 11 10 14 11 18 14 3 6-1 7-13 28-11 26-9 27-4 20v8l66 3 40 4 32 5 27 6 26 8 9 3 20-7 26-7 33-6 32-4 41-3 32-1 14-1v-8l-4-20-10-30-10-23-4-9-3-17 3-18 7-14 8-8 10-6 3-1h8l5 4 13 31 11 24 11 22 15 25 13 18 12 14 15 15 16 11 13 6 14 3h8l12-3 10-5 12-11 7-10 8-16 6-20 3-17 1-14v-17l-2-22-5-26-8-26-8-20-9-19-11-19-12-18-13-17-12-14-12-13-11-10-15-11-14-8-12-5-11-3-6-1h-17l-14 3-13 5-14 8-10 8-10 9-10 10-9 11-11 15-14 22-13 24-11 23-11 27-3 7-3 2h-8l-5-4-5-5-12-7-15-5-17-3-12-1-39 1-17 3-18 6-13 8-7 1-6-3-2-6v-11l-3-15-14-51-14-47-18-55-13-36-14-34-9-20-10-21-13-23-13-19-9-11-13-13-11-7-9-3z"/>
<path transform="translate(282,716)" d="m0 0 4 4 9 14 9 11 9 9 13 9 16 8 13 4 12 2h22l17-3 18-6 14-7 14-10 7-7 20 15 12 6v23l-1 3-19 13-6 5-1 6 3 3 7-1 18-13 7-4 19 13 7 5 7-1 1-6-4-5-16-11-6-4-1-6v-19l3-3 12-6 10-8 7-6 4 2 9 9 14 9 15 7 16 5 11 2 18 1 17-2 17-5 16-8 12-9 14-14 10-14 6-10 4 4 14 21 10 13v2l-10 4-10 3-4 4-4 10-22 6-4 5v7l1 6-19 12-27 14-25 10-25 8-22 5-19 3-11 1h-85l-26-3-24-5-27-8-25-10-19-9-21-12-9-6 1-13-4-5-23-7-3-10-5-4-17-5-2-1 2-4 13-18z" fill="#F7F7F7"/>
<path transform="translate(252,177)" d="m0 0h10l10 3 11 8 8 10 8 15 8 24 15 54 7 22 11 28 15 36 15 37 12 30 3 8v10l-3 6-7 6-3 1h-8l-11-4-10-10-11-14-16-21-33-44-14-19-14-21-9-16-9-19-9-24-6-20-4-20v-22l3-14 8-16 7-7 11-6z"/>
<path transform="translate(686,335)" d="m0 0 2 1 8 31 6 32 3 26-11 9-11 11-11 9-14 12-14 11-6 3h-11l-8-5-4-8v-11l6-18 18-40 8-15 8-12 10-13 8-10 7-8z"/>
<path transform="translate(661,639)" d="m0 0h17l-2 9-19 56-9 25-1 1h-17l2-9 17-50 11-31z" fill="#F7F7F7"/>
<path transform="translate(632,643)" d="m0 0 1 4-24 71-5 14-1 1h-16l1-7 16-49 11-32 1-1z" fill="#F7F7F7"/>
<path transform="translate(405,649)" d="m0 0h17l-2 9-15 43-12 35-1 1h-17l3-11 15-44 11-32z" fill="#F7F7F7"/>
<path transform="translate(363,642)" d="m0 0h17l-1 7-9 25-12 36-7 20h-17l2-9 17-51z" fill="#F7F7F7"/>
<path transform="translate(489,725)" d="m0 0h19l17 5 4 2-2 4-12 10-12 6h-9l-12-6-14-12v-2l16-6z" fill="#F7F7F7"/>
<path transform="translate(498,683)" d="m0 0 5 1 12 11 8 10 5 9-1 3-14-4-7-1h-15l-15 3-4 1 2-6 7-11 14-14z" fill="#F7F7F7"/>
</svg>
