<?xml version="1.0" encoding="UTF-8"?>
<svg version="1.1" viewBox="0 0 948 1208" width="1280" height="1280" xmlns="http://www.w3.org/2000/svg">
<path transform="translate(0)" d="m0 0h948v1208h-948z" fill="#FEFEFE"/>
<path transform="translate(433,93)" d="m0 0h24l17 4 24 10 41 21 11 5 21 7 26 5 34 5 25 6 12 4 10 5 12 9 10 10 11 16 8 14 20 40 13 21 12 14 7 7v2l3 1 34 34 11 14 8 14 5 11 3 12 1 22-2 24-7 41-1 9v34l4 25 5 28 1 9v33l-4 15-9 19-12 16-11 12-22 22-5 4-7 8-9 10-10 14-15 28-16 32-10 16-12 14-10 8-11 7-24 8-18 4-46 7-19 5-19 7-17 9-32 16-17 8-19 5-10 1h-11l-18-3-19-7-19-9-19-10-25-12-25-8-23-4-29-4-20-4-21-7-13-7-11-9-11-12-14-22-8-17-8-15-8-16-10-16-9-11-9-10-21-21-8-7-12-13-10-13-8-14-5-14-2-11v-25l3-25 4-21 3-24v-27l-4-28-5-27-2-19v-15l2-16 4-12 8-16 12-16 18-20 8-7 13-12 1-2h2l2-4 7-7 12-17 10-18 13-26 10-19 12-18 11-12 11-8 16-8 20-6 27-5 29-4 21-5 21-8 37-19 16-8 17-7z" fill="#101010"/>
<path transform="translate(426,214)" d="m0 0h41l24 3 28 6 18 5 30 12 22 12 16 10 11 8 14 11 16 15 12 12 7 8 7 10-2 5-8 11-13 18-12 16-14 19-12 16-10 14-10 13-8 11-28 38-9 12-13 18-10 13-16 22-14 19-8 11-10 13-8 11-13 18-5 4-2 1h-9l-8-7-10-10-7-8-15-16-12-13-15-16-36-39-15-16-9-10-15-16-9-10-14-15-8-5-11-1-8 3-5 4-4 8-1 8 2 8 6 9 10 10 7 8 14 15 12 13 14 15 36 39 15 16 14 15 9 10 14 15 11 12 7 7 12 7 17 5h14l16-5 10-5 10-9 10-13 10-14 6-8 10-13 10-14 8-11 21-28 8-11 13-18 10-13 13-18 11-15 24-32 11-15 14-19 12-16 10-14 11-15 4 5 8 19 8 22 7 29 4 23 1 11v41l-3 25-8 36-6 18-10 24-14 26-14 20-11 14-11 12-7 8h-2v2l-8 7-14 12-18 13-18 11-21 11-28 11-17 5-32 7-19 2-29 1-28-2-18-3-30-7-15-5-24-10-23-12-11-7-17-12-11-9-10-9-8-7-8-8-9-11-7-8-13-18-10-16-12-24-11-28-6-23-6-31-2-29v-11l2-29 6-31 7-27 13-31 13-24 12-18 14-18 16-17 12-12 11-9 17-13 17-11 18-10 23-10 19-7 30-7 24-4z" fill="#101010"/>
<path transform="translate(843,620)" d="m0 0h6l3 3v10l-6 14-11 17-12 14-9 10-18 18-8 7-9 10-8 10-9 14-9 17-11 23-13 23-9 12-9 10-5 5 1 6 15 32 15 33 15 32 15 33 16 35 13 28 11 24 4 9-1 4-8 3-26 5-44 7-41 7-7 4-10 9-10 8-14 12-11 9-11 10-10 8-14 12-7 5-5 1-8-16-11-24-13-28-36-78-15-33-14-30-15-33-4-8-7 1-10 2-8 16-24 52-11 25-7 14-22 48-12 27-6 12-6 14-7 14-8 18-5 7-5-2-9-7-13-11-11-9-14-12-11-9-15-13-11-9-7-5-31-6-69-11-18-4-4-3 3-9 12-27 17-36 9-20 13-28 12-26 15-33 12-26 3-6v-2l-19-9-7-5-2-3v-6l3-3h7l18 10 14 5 24 5 59 10 16 5 24 11 19 10 23 11 19 7 17 4h22l17-4 19-7 36-18 17-9 16-7 26-6 62-11 13-4 23-11 6-5h2v-2l8-7 11-14 6-9 6-12 8-15 8-16 11-21 10-14 9-10 5-6 8-7 25-25 7-8 9-12 7-11 8-19z" fill="#101010"/>
<path transform="translate(423,199)" d="m0 0h47l24 3 27 6 21 6 26 10 16 8 18 10 15 10 16 12 14 12 11 11 2 1v2l4 2 7 8 10 12h2l5-5 8-5h12l8 3 6 7 3 8v9l-4 9-7 10-4 5 3 9 8 17 9 23 6 21 6 27 3 24 1 19v11l-2 29-4 24-8 32-9 24-8 18-12 22-10 15-14 19-9 10-7 8-15 15-8 7-14 11-13 9-15 10-27 14-28 11-20 6-31 7-17 2-22 1h-14l-20-1-24-3-40-10-17-6-23-10-21-11-24-16-18-14-17-16-11-11-7-8-14-18-15-23-13-24-12-29-6-20-7-30-3-23-1-20v-13l1-21 3-23 8-34 7-21 10-24 14-26 10-15 16-21 10-11 7-8 10-10 11-9 9-8 18-13 20-12 19-10 28-11 19-6 37-8zm3 15-25 3-28 6-21 6-24 10-16 8-16 9-16 11-13 10-14 12-18 18-7 8-11 14-9 13-11 18-10 19-11 27-7 27-6 31-2 29v11l2 29 6 31 6 23 12 31 10 18 6 11 10 15 13 17 10 11 7 8 8 8 8 7 16 13 16 11 15 9 23 12 28 11 32 8 16 3 17 2 27 1 31-2 23-4 28-7 19-7 21-9 24-13 16-11 13-10 14-12 6-5v-2l4-2 18-20 10-13 10-15 8-13 11-21 12-31 7-28 4-21 2-19v-41l-3-24-7-31-6-20-9-22-6-12-5 5-8 11-10 14-14 19-12 16-13 18-9 12-10 13-10 14-14 19-12 16-13 18-12 16-8 11-10 13-7 10-11 15-21 28-11 15-9 10-9 6-13 5-8 2h-14l-17-5-12-7-15-15-7-8-15-16-22-24-15-16-14-15-11-12-12-13-14-15-12-13-14-15-9-10-7-8-3-6-1-9 3-10 5-5 6-4 10-1 9 3 8 7 15 16 22 24 14 15 9 10 16 17 11 12 12 13 28 30 24 26 8 8 2 1h9l6-4 21-28 8-11 12-16 10-14 9-12 11-15 7-9 10-14 14-19 12-16 13-18 10-13 16-22 28-38 10-13 8-11 20-28-2-5-7-9-14-15-12-12-8-7-14-11-21-14-16-9-16-8-31-12-30-7-23-4-11-1z" fill="#FEFEFE"/>
<path transform="translate(440,70)" d="m0 0h11l14 2 20 6 17 7 52 26 16 6 24 5 54 9 18 5 17 7 12 7 11 9 10 10 11 15 12 21 18 36 10 17 10 13 47 47 11 14 9 14 6 12 5 17 2 11v32l-5 34-3 6-4 1-8-4 3-22 2-13 1-13v-10l-2-17-4-15-8-16-9-13-12-14-18-18-8-7-10-10-7-8-10-13-10-17-9-17-11-23-10-17-12-16-8-8-10-7-17-9-16-5-22-4-53-9-17-5-21-9-41-21-14-6-15-5-17-3h-15l-16 3-21 7-16 8-43 22-15 6-21 5-41 7-22 4-16 5-11 5-11 6-10 8-7 7-11 15-10 17-8 16-5 8-4 1-6-4-1-4 7-16 12-22 10-14 11-13 11-9 11-7 14-7 15-5 24-5 48-8 19-5 12-5 26-13 19-10 17-8 15-5 17-4z" fill="#101010"/>
<path transform="translate(96,292)" d="m0 0 5 2 3 4-1 5-7 8-19 19-10 13-8 13-6 14-4 17-1 8v17l4 31 6 37 1 14v10l-2 22-7 49-1 9v21l3 17 5 15 8 14 10 13 7 7 7 8 14 14 4 3v2l4 2v2l4 2v2l3 1 14 16 3 5-1 6-5 3-5-1-8-9-7-8-44-44-10-13-8-13-5-10-6-21-2-19 1-22 8-57 1-10v-22l-5-36-5-31-1-20 2-19 5-19 9-19 8-12 11-13 7-8 14-14z" fill="#101010"/>
<path transform="translate(144,1059)" d="m0 0 13 1 54 9 39 6 14 7 11 10 11 9 14 12 11 9 14 12 10 8 7 6 1 6-5 1-10-8-14-12-11-9-26-22-14-12-9-6-5-2-71-12-32-5-3-2z" fill="#FEFEFE"/>
<path transform="translate(787,1059)" d="m0 0h7l2 5-6 3-57 9-27 5-18 3-8 4-11 9-14 12-10 8-10 9-10 8-14 12h-2v2l-10 7-4-2 1-5 15-13 11-9 15-13 14-12 11-9 12-10 11-6 22-4 44-7z" fill="#FEFEFE"/>
<path transform="translate(882,487)" d="m0 0h6l4 3v9l-7 14 5 2 9 6 3 3-1 7-5 4-7-2-10-6h-3l-6 11-6 5-5-1-4-3v-6l7-13v-3l-13-7-3-4 1-6 3-4 8 1 11 6h3l8-15z" fill="#101010"/>
<path transform="translate(143,769)" d="m0 0 4 1 2 3 1 11 17-1 2 4v5l-5 3-11 1 2 8v7l-4 2h-5l-3-9-1-5h-16l-2-3 1-5 4-3 11-1-1-5v-11z" fill="#101010"/>
<path transform="translate(111,235)" d="m0 0 4 1 1 6-6 10 5 2 6 5-1 5-7 1-7-4h-2l-6 8-5 1-2-2 1-7 3-5v-3l-8-5-1-5 3-3 6 1 5 4 3 1 2-5 2-4z" fill="#101010"/>
</svg>
